<svg xmlns="http://www.w3.org/2000/svg" viewBox="0 0 25.43 25.43"><defs><style>.cls-1{opacity:0.75;}.cls-2{fill:#10a097;}</style></defs><g id="wireframe"><path class="cls-2" d="M7.32,24.22a11.84,11.84,0,0,0,4.45,1.17.71.71,0,0,1,.2,0h1.49c.49-.07,1-.11,1.47-.2a12.54,12.54,0,0,0,9-6.56,11.76,11.76,0,0,0,1.47-6.49A12.47,12.47,0,0,0,18.65,1.49,11.61,11.61,0,0,0,12.18,0,12.48,12.48,0,0,0,1.5,6.75a11.86,11.86,0,0,0-1.46,5A1.55,1.55,0,0,1,0,12v1.49c.07.49.11,1,.2,1.47A12.54,12.54,0,0,0,7.32,24.22ZM18.42,7.08,12.71,11.6,6.8,7.08ZM6.22,9l.24.18c1.83,1.38,3.66,2.76,5.48,4.16a1,1,0,0,0,1.45,0c1.75-1.42,3.53-2.82,5.29-4.22L19,8.86v9.49H6.22Z"/></g></svg>