<svg xmlns="http://www.w3.org/2000/svg" viewBox="0 0 25.29 25.35"><defs><style>.cls-1{opacity:0.75;}.cls-2{fill:#10a097;}</style></defs><g id="wireframe"><path class="cls-2" d="M8.58,24.6a12.1,12.1,0,0,0,12.36-2.41,12,12,0,0,0,4.27-8A12.61,12.61,0,0,0,15.72.38c-.66-.17-1.36-.22-2-.34l-.24,0H11.91c-.58.08-1.16.14-1.73.25a12.64,12.64,0,0,0-10,10.22c-.08.46-.13.93-.19,1.39v1.58c.07.47.1,1,.2,1.42A12.25,12.25,0,0,0,8.58,24.6Zm.86-13.08c0-.32.12-.43.43-.44h1.29c0-.32,0-.61,0-.91a10.4,10.4,0,0,1,.1-1.67,2.55,2.55,0,0,1,2.56-2.16c.53,0,1.06,0,1.59,0,.26,0,.38.11.38.37,0,.46,0,.93,0,1.39,0,.27-.12.37-.4.38s-.71,0-1.06,0a.81.81,0,0,0-.83.82c0,.57,0,1.15,0,1.76h1.94c.32,0,.45.16.41.47-.06.52-.12,1-.19,1.57,0,.29-.13.39-.43.39H13.49v5.07c0,.34-.06.4-.4.4H11.53c-.32,0-.37-.05-.37-.38,0-1.59,0-3.19,0-4.79v-.3H9.9c-.36,0-.46-.11-.46-.46Z"/></g></svg>