<svg xmlns="http://www.w3.org/2000/svg" viewBox="0 0 25.29 25.35"><defs><style>.cls-1{opacity:0.75;}.cls-2{fill:#10a097;}</style></defs><g id="wireframe"><path class="cls-2" d="M15.72.38c-.66-.17-1.36-.22-2-.34l-.24,0H11.91c-.58.08-1.16.14-1.73.25a12.64,12.64,0,0,0-10,10.22c-.08.46-.13.93-.19,1.39v1.58c.07.47.1,1,.2,1.42A12.25,12.25,0,0,0,8.58,24.6a12.1,12.1,0,0,0,12.36-2.41,12,12,0,0,0,4.27-8A12.61,12.61,0,0,0,15.72.38Zm3,14.9A2,2,0,0,1,17.09,17a12.22,12.22,0,0,1-1.81.2c-.88,0-1.76.07-3,.12s-2.44-.15-3.82-.26a2.31,2.31,0,0,1-1.39-.63,1.79,1.79,0,0,1-.55-1.1,16.76,16.76,0,0,1,0-5.29A1.94,1.94,0,0,1,8.23,8.32a13.45,13.45,0,0,1,1.91-.21,39,39,0,0,1,6.66.14A2.47,2.47,0,0,1,18.34,9a2.18,2.18,0,0,1,.47,1.33A16.69,16.69,0,0,1,18.77,15.28Z"/><path class="cls-2" d="M11.15,15.07l3.94-2.42-3.94-2.42Z"/></g></svg>