<svg xmlns="http://www.w3.org/2000/svg" viewBox="0 0 25.29 25.35"><defs><style>.cls-1{opacity:0.75;}.cls-2{fill:#10a097;}</style></defs><g id="wireframe"><path class="cls-2" d="M15.12,7.61q-2.46,0-4.92,0A2.48,2.48,0,0,0,7.6,10.2v4.91a2.49,2.49,0,0,0,2.6,2.59q2.45,0,4.89,0a2.47,2.47,0,0,0,2.61-2.6c0-.82,0-1.63,0-2.45s0-1.64,0-2.47A2.47,2.47,0,0,0,15.12,7.61Zm-2.47,8.31a3.27,3.27,0,1,1,3.27-3.24A3.26,3.26,0,0,1,12.65,15.92ZM16,10.18a.81.81,0,0,1-.82-.81.82.82,0,0,1,.81-.8.81.81,0,0,1,.81.82A.79.79,0,0,1,16,10.18Z"/><path class="cls-2" d="M12.62,10.66a2,2,0,0,0,.07,4,2,2,0,0,0-.07-4Z"/><path class="cls-2" d="M15.72.38c-.66-.17-1.36-.22-2-.34l-.24,0H11.91c-.58.08-1.16.14-1.73.25a12.64,12.64,0,0,0-10,10.22c-.08.46-.13.93-.19,1.39v1.58c.07.47.1,1,.2,1.42A12.25,12.25,0,0,0,8.58,24.6a12.1,12.1,0,0,0,12.36-2.41,12,12,0,0,0,4.27-8A12.61,12.61,0,0,0,15.72.38ZM19,15.16A3.77,3.77,0,0,1,15.15,19h-5a3.77,3.77,0,0,1-3.83-3.83c0-.83,0-1.67,0-2.5s0-1.68,0-2.52a3.75,3.75,0,0,1,3.81-3.8h5A3.77,3.77,0,0,1,19,10.14Z"/></g></svg>