<svg xmlns="http://www.w3.org/2000/svg" viewBox="0 0 25.29 25.35"><defs><style>.cls-1{opacity:0.75;}.cls-2{fill:#10a097;}</style></defs><g id="wireframe"><path class="cls-2" d="M10.58,12.72H9.7v-2c0-.26-.12-.41-.32-.41s-.33.15-.33.4V13c0,.31.12.43.43.43h1.09c.28,0,.43-.12.43-.33S10.85,12.72,10.58,12.72Z"/><path class="cls-2" d="M11.64,10.28c-.25,0-.32.08-.33.35V13c0,.28.07.36.32.36S12,13.28,12,13V10.64C12,10.37,11.88,10.28,11.64,10.28Z"/><path class="cls-2" d="M15.72.38c-.66-.17-1.36-.22-2-.34l-.24,0H11.91c-.58.08-1.16.14-1.73.25a12.64,12.64,0,0,0-10,10.22c-.08.46-.13.93-.19,1.39v1.58c.07.47.1,1,.2,1.42A12.25,12.25,0,0,0,8.58,24.6a12.1,12.1,0,0,0,12.36-2.41,12,12,0,0,0,4.27-8A12.61,12.61,0,0,0,15.72.38Zm2.66,13.46a10.36,10.36,0,0,1-3.32,3.3c-.8.51-1.65.95-2.48,1.41-.36.2-.6,0-.57-.38s.07-.65.1-1-.06-.48-.44-.53a6.87,6.87,0,0,1-2.92-1,4.84,4.84,0,0,1-2.32-3.09A4.15,4.15,0,0,1,7.64,8.64a6.64,6.64,0,0,1,4.1-1.92l.49,0h.42a7,7,0,0,1,4.48,1.47A4.43,4.43,0,0,1,19,11.88,4.16,4.16,0,0,1,18.38,13.84Z"/><path class="cls-2" d="M15,10.68c0-.26-.15-.41-.35-.4s-.3.14-.3.4,0,.56,0,.84V12c-.46-.51-.86-1-1.27-1.55a.52.52,0,0,0-.38-.15c-.17,0-.23.17-.23.35v1c0,.46,0,.92,0,1.39,0,.29.27.46.48.3a.55.55,0,0,0,.16-.36c0-.43,0-.87,0-1.3l.05,0,1.19,1.54c.11.14.23.23.4.17A.35.35,0,0,0,15,13V12C15,11.55,15,11.11,15,10.68Z"/><path class="cls-2" d="M17.09,10.92a.3.3,0,0,0,.32-.33.3.3,0,0,0-.32-.31H15.78a.29.29,0,0,0-.32.3v2.47a.28.28,0,0,0,.29.3h1.34a.28.28,0,0,0,.3-.29.31.31,0,0,0-.29-.34h-1v-.56H17c.26,0,.41-.13.41-.33s-.14-.32-.41-.32h-.87v-.58Z"/></g></svg>