<svg xmlns="http://www.w3.org/2000/svg" viewBox="0 0 25.45 25.45"><defs><style>.cls-1{opacity:0.75;}.cls-2{fill:#10a097;}</style></defs><g id="wireframe"><path class="cls-2" d="M15.6,18.39a6.3,6.3,0,0,0,1.7-1.27l-.91-.4C16.12,17.29,15.86,17.83,15.6,18.39Z"/><path class="cls-2" d="M15.76,9.67,13.19,10v2.24h3C16,11.37,15.88,10.51,15.76,9.67Z"/><path class="cls-2" d="M15.81,15.55c.1-.77.21-1.56.32-2.36H13.19v2Z"/><path class="cls-2" d="M15.23.25A12.7,12.7,0,0,0,.33,9.87c-.14.6-.19,1.21-.29,1.82a2,2,0,0,1,0,.24v1.59c.06.46.11.92.19,1.37a12.55,12.55,0,0,0,4.73,7.88,12.38,12.38,0,0,0,6.82,2.64,1.29,1.29,0,0,1,.19,0h1.59c.47-.06.94-.11,1.4-.19a12.44,12.44,0,0,0,7.83-4.72,12.42,12.42,0,0,0,2.69-8.35A12.74,12.74,0,0,0,15.23.25ZM12.74,20.39a7.67,7.67,0,1,1,7.65-7.69A7.66,7.66,0,0,1,12.74,20.39Z"/><path class="cls-2" d="M9,9.37,7.75,8.78A6.2,6.2,0,0,0,6.4,12.26H8.62C8.76,11.29,8.9,10.33,9,9.37Z"/><path class="cls-2" d="M8.63,13.18H6.39a6.33,6.33,0,0,0,1.23,3.33L9,15.86Z"/><path class="cls-2" d="M10.14,6.92A6.26,6.26,0,0,0,8.37,8.11l1,.42C9.6,8,9.86,7.47,10.14,6.92Z"/><path class="cls-2" d="M10.2,8.83l2.07.28V6.34a2.62,2.62,0,0,0-.55.22A5,5,0,0,0,10.2,8.83Z"/><path class="cls-2" d="M10.29,16.82a5.06,5.06,0,0,0,1.36,2,.69.69,0,0,0,.62.19V16.1l-2.14.31C10.2,16.59,10.24,16.71,10.29,16.82Z"/><path class="cls-2" d="M17.15,8.17a6.26,6.26,0,0,0-1.56-1.11c.25.5.48,1,.72,1.47Z"/><path class="cls-2" d="M9.5,12.26h2.77V10L9.89,9.66C9.76,10.51,9.64,11.37,9.5,12.26Z"/><path class="cls-2" d="M13.18,19.11a2.76,2.76,0,0,0,.75-.24,5.06,5.06,0,0,0,1.59-2.47l-2.34-.32Z"/><path class="cls-2" d="M16.61,9.36c.14,1,.28,1.94.42,2.91h2a6.27,6.27,0,0,0-1.3-3.41Z"/><path class="cls-2" d="M14.18,6.76a1.19,1.19,0,0,0-1-.35V9.14l2.26-.31A5.79,5.79,0,0,0,14.18,6.76Z"/><path class="cls-2" d="M9.84,15.57l2.43-.36v-2H9.51C9.63,14,9.74,14.8,9.84,15.57Z"/><path class="cls-2" d="M16.66,15.87l1.22.55a6.11,6.11,0,0,0,1.17-3.24H17C16.9,14.09,16.78,15,16.66,15.87Z"/><path class="cls-2" d="M8.21,17.19a6.3,6.3,0,0,0,1.91,1.32c-.29-.61-.58-1.19-.87-1.8Z"/></g></svg>